<svg width="790" height="108" viewBox="0 0 790 108" fill="none" xmlns="http://www.w3.org/2000/svg">
<path d="M0.346591 146V0.54545H54.892C66.0663 0.54545 75.4413 2.48674 83.017 6.36931C90.6402 10.2519 96.393 15.697 100.276 22.7045C104.205 29.6648 106.17 37.785 106.17 47.0653C106.17 56.393 104.182 64.4896 100.205 71.3551C96.2746 78.1733 90.4744 83.4526 82.804 87.1932C75.1335 90.8864 65.7112 92.733 54.5369 92.733H15.6875V70.858H50.9858C57.5199 70.858 62.8703 69.9583 67.0369 68.1591C71.2036 66.3125 74.2813 63.6373 76.2699 60.1335C78.3059 56.5824 79.3239 52.2263 79.3239 47.0653C79.3239 41.9044 78.3059 37.5009 76.2699 33.8551C74.2339 30.1619 71.1326 27.3684 66.9659 25.4744C62.7992 23.5331 57.4252 22.5625 50.8438 22.5625H26.696V146H0.346591ZM75.4886 80.0909L111.497 146H82.0938L46.7244 80.0909H75.4886ZM164.021 148.131C153.084 148.131 143.638 145.858 135.683 141.312C127.776 136.72 121.692 130.233 117.43 121.852C113.169 113.424 111.038 103.505 111.038 92.0938C111.038 80.8722 113.169 71.0237 117.43 62.5483C121.739 54.0256 127.752 47.3968 135.47 42.6619C143.188 37.8797 152.255 35.4886 162.672 35.4886C169.395 35.4886 175.74 36.5777 181.706 38.7557C187.719 40.8864 193.022 44.2008 197.615 48.6989C202.255 53.197 205.901 58.9261 208.553 65.8864C211.204 72.7992 212.53 81.0379 212.53 90.6023V98.4858H123.112V81.1562H187.885C187.838 76.232 186.772 71.8523 184.689 68.017C182.606 64.1345 179.694 61.0805 175.953 58.8551C172.26 56.6297 167.951 55.517 163.027 55.517C157.771 55.517 153.155 56.7955 149.178 59.3523C145.2 61.8617 142.099 65.1761 139.874 69.2955C137.696 73.3674 136.583 77.8419 136.536 82.7188V97.8466C136.536 104.191 137.696 109.636 140.016 114.182C142.336 118.68 145.579 122.136 149.746 124.551C153.912 126.919 158.789 128.102 164.376 128.102C168.117 128.102 171.502 127.581 174.533 126.54C177.563 125.451 180.191 123.865 182.416 121.781C184.642 119.698 186.322 117.117 187.459 114.04L211.464 116.739C209.949 123.083 207.061 128.623 202.8 133.358C198.586 138.045 193.188 141.691 186.607 144.295C180.025 146.852 172.497 148.131 164.021 148.131ZM253.673 148.202C246.76 148.202 240.533 146.971 234.994 144.509C229.501 141.999 225.145 138.306 221.925 133.429C218.753 128.552 217.167 122.539 217.167 115.389C217.167 109.234 218.303 104.144 220.576 100.119C222.849 96.0947 225.95 92.875 229.88 90.4602C233.81 88.0455 238.237 86.2225 243.161 84.9915C248.133 83.7131 253.27 82.7898 258.573 82.2216C264.965 81.5587 270.15 80.9669 274.127 80.446C278.104 79.8778 280.993 79.0256 282.792 77.8892C284.638 76.7055 285.562 74.8826 285.562 72.4205V71.9943C285.562 66.6439 283.976 62.5009 280.803 59.5653C277.631 56.6297 273.062 55.1619 267.096 55.1619C260.799 55.1619 255.803 56.535 252.11 59.2812C248.464 62.0275 246.002 65.2708 244.724 69.0114L220.718 65.6023C222.612 58.9735 225.737 53.4337 230.093 48.983C234.449 44.4848 239.776 41.1231 246.073 38.8977C252.371 36.625 259.331 35.4886 266.954 35.4886C272.21 35.4886 277.442 36.1042 282.65 37.3352C287.858 38.5663 292.617 40.6023 296.925 43.4432C301.234 46.2367 304.691 50.0483 307.295 54.8778C309.946 59.7074 311.272 65.7443 311.272 72.9886V146H286.556V131.014H285.704C284.141 134.045 281.94 136.885 279.099 139.537C276.305 142.141 272.778 144.248 268.516 145.858C264.302 147.42 259.354 148.202 253.673 148.202ZM260.349 129.31C265.51 129.31 269.984 128.292 273.772 126.256C277.56 124.172 280.472 121.426 282.508 118.017C284.591 114.608 285.633 110.891 285.633 106.866V94.0114C284.828 94.6742 283.455 95.2898 281.513 95.858C279.62 96.4261 277.489 96.9233 275.121 97.3494C272.754 97.7756 270.41 98.1544 268.09 98.4858C265.77 98.8172 263.758 99.1013 262.053 99.3381C258.218 99.8589 254.785 100.711 251.755 101.895C248.725 103.079 246.334 104.736 244.582 106.866C242.83 108.95 241.954 111.649 241.954 114.963C241.954 119.698 243.682 123.273 247.138 125.688C250.595 128.102 254.998 129.31 260.349 129.31ZM365.607 147.918C357.037 147.918 349.367 145.716 342.596 141.312C335.825 136.909 330.475 130.517 326.545 122.136C322.615 113.756 320.65 103.576 320.65 91.5966C320.65 79.4754 322.638 69.2481 326.616 60.9148C330.64 52.5341 336.062 46.2131 342.88 41.9517C349.698 37.643 357.298 35.4886 365.678 35.4886C372.07 35.4886 377.326 36.5777 381.445 38.7557C385.565 40.8864 388.832 43.4669 391.246 46.4972C393.661 49.4801 395.531 52.2973 396.857 54.9489H397.923V0.54545H423.704V146H398.42V128.812H396.857C395.531 131.464 393.614 134.281 391.104 137.264C388.595 140.2 385.281 142.709 381.161 144.793C377.042 146.876 371.857 147.918 365.607 147.918ZM372.781 126.824C378.226 126.824 382.866 125.356 386.701 122.42C390.536 119.437 393.448 115.295 395.437 109.991C397.425 104.688 398.42 98.5095 398.42 91.4545C398.42 84.3996 397.425 78.268 395.437 73.0597C393.496 67.8513 390.607 63.803 386.772 60.9148C382.984 58.0265 378.32 56.5824 372.781 56.5824C367.051 56.5824 362.269 58.0739 358.434 61.0568C354.599 64.0398 351.71 68.1591 349.769 73.4148C347.828 78.6705 346.857 84.6837 346.857 91.4545C346.857 98.2727 347.828 104.357 349.769 109.707C351.758 115.01 354.67 119.201 358.505 122.278C362.388 125.309 367.146 126.824 372.781 126.824ZM440.237 146V0.54545H466.587V62.1222H533.987V0.54545H560.408V146H533.987V84.2102H466.587V146H440.237ZM645.46 100.119V36.9091H671.17V146H646.241V126.611H645.105C642.643 132.719 638.595 137.714 632.96 141.597C627.373 145.479 620.484 147.42 612.293 147.42C605.143 147.42 598.822 145.834 593.33 142.662C587.884 139.442 583.623 134.778 580.545 128.67C577.468 122.515 575.929 115.081 575.929 106.369V36.9091H601.639V102.392C601.639 109.305 603.533 114.797 607.321 118.869C611.109 122.941 616.08 124.977 622.236 124.977C626.024 124.977 629.693 124.054 633.244 122.207C636.795 120.361 639.707 117.615 641.98 113.969C644.3 110.276 645.46 105.659 645.46 100.119ZM686.745 146V0.54545H712.455V54.9489H713.521C714.846 52.2973 716.717 49.4801 719.131 46.4972C721.546 43.4669 724.813 40.8864 728.933 38.7557C733.052 36.5777 738.308 35.4886 744.7 35.4886C753.128 35.4886 760.727 37.643 767.498 41.9517C774.316 46.2131 779.714 52.5341 783.691 60.9148C787.716 69.2481 789.728 79.4754 789.728 91.5966C789.728 103.576 787.763 113.756 783.833 122.136C779.903 130.517 774.553 136.909 767.782 141.312C761.011 145.716 753.341 147.918 744.771 147.918C738.521 147.918 733.336 146.876 729.217 144.793C725.097 142.709 721.783 140.2 719.273 137.264C716.811 134.281 714.894 131.464 713.521 128.812H712.029V146H686.745ZM711.958 91.4545C711.958 98.5095 712.952 104.688 714.941 109.991C716.977 115.295 719.889 119.437 723.677 122.42C727.512 125.356 732.152 126.824 737.597 126.824C743.279 126.824 748.038 125.309 751.873 122.278C755.708 119.201 758.596 115.01 760.538 109.707C762.526 104.357 763.521 98.2727 763.521 91.4545C763.521 84.6837 762.55 78.6705 760.609 73.4148C758.667 68.1591 755.779 64.0398 751.944 61.0568C748.109 58.0739 743.326 56.5824 737.597 56.5824C732.105 56.5824 727.441 58.0265 723.606 60.9148C719.771 63.803 716.859 67.8513 714.87 73.0597C712.929 78.268 711.958 84.3996 711.958 91.4545Z" fill="black"/>
</svg>
